<svg width="262" height="37" viewBox="0 0 262 37" fill="none" xmlns="http://www.w3.org/2000/svg">
<path d="M15.8059 0.499998H18.0059L33.0059 36H30.3059L25.3559 24.3H8.40586L3.45586 36H0.705859L15.8059 0.499998ZM24.6559 22.2L16.9059 3.6L9.00586 22.2H24.6559ZM38.3961 36V0.499998H53.1461C54.6794 0.499998 56.0628 0.816665 57.2961 1.45C58.5628 2.08333 59.6461 2.93333 60.5461 4C61.4794 5.03333 62.1961 6.2 62.6961 7.5C63.2294 8.8 63.4961 10.1333 63.4961 11.5C63.4961 13.2667 63.1461 14.9167 62.4461 16.45C61.7461 17.9833 60.7628 19.2667 59.4961 20.3C58.2628 21.3333 56.8128 21.9667 55.1461 22.2L63.9961 36H61.0461L52.4461 22.6H40.9461V36H38.3961ZM40.9461 20.25H53.3961C54.9294 20.25 56.2628 19.8333 57.3961 19C58.5294 18.1667 59.3961 17.0833 59.9961 15.75C60.6294 14.4167 60.9461 13 60.9461 11.5C60.9461 9.96667 60.5794 8.55 59.8461 7.25C59.1461 5.91667 58.1961 4.85 56.9961 4.05C55.8294 3.21666 54.5128 2.8 53.0461 2.8H40.9461V20.25ZM95.2273 2.8H82.2273V36H79.6773V2.8H66.6773V0.499998H95.2273V2.8ZM96.1293 23.55V21.25H110.529V23.55H96.1293ZM118.523 36V0.499998H133.273C134.806 0.499998 136.19 0.816665 137.423 1.45C138.69 2.08333 139.773 2.93333 140.673 4C141.606 5.03333 142.323 6.2 142.823 7.5C143.356 8.8 143.623 10.1333 143.623 11.5C143.623 13.2667 143.273 14.9167 142.573 16.45C141.873 17.9833 140.89 19.2667 139.623 20.3C138.39 21.3333 136.94 21.9667 135.273 22.2L144.123 36H141.173L132.573 22.6H121.073V36H118.523ZM121.073 20.25H133.523C135.056 20.25 136.39 19.8333 137.523 19C138.656 18.1667 139.523 17.0833 140.123 15.75C140.756 14.4167 141.073 13 141.073 11.5C141.073 9.96667 140.706 8.55 139.973 7.25C139.273 5.91667 138.323 4.85 137.123 4.05C135.956 3.21666 134.64 2.8 133.173 2.8H121.073V20.25ZM150.994 36V0.499998H153.544V36H150.994ZM165.409 5.25V36H162.859V0.499998H164.959L189.709 31.75V0.499998H192.259V36H189.759L165.409 5.25ZM215.731 36.25C213.331 36.25 211.114 35.7333 209.081 34.7C207.048 33.6667 205.281 32.3 203.781 30.6C202.281 28.8667 201.114 26.9333 200.281 24.8C199.481 22.6333 199.081 20.4333 199.081 18.2C199.081 15.8667 199.481 13.6333 200.281 11.5C201.081 9.33333 202.214 7.41667 203.681 5.75C205.148 4.05 206.881 2.71667 208.881 1.75C210.881 0.749998 213.064 0.249998 215.431 0.249998C218.964 0.249998 221.814 0.983332 223.981 2.45C226.181 3.88333 227.848 5.73333 228.981 8L226.881 9.25C225.681 6.91667 224.081 5.23333 222.081 4.2C220.114 3.13333 217.881 2.6 215.381 2.6C213.281 2.6 211.381 3.05 209.681 3.95C207.981 4.81667 206.531 6 205.331 7.5C204.131 8.96667 203.214 10.6333 202.581 12.5C201.948 14.3667 201.631 16.2833 201.631 18.25C201.631 20.35 201.998 22.3333 202.731 24.2C203.464 26.0667 204.481 27.7333 205.781 29.2C207.081 30.6667 208.598 31.8167 210.331 32.65C212.064 33.4833 213.914 33.9 215.881 33.9C218.181 33.9 220.348 33.35 222.381 32.25C224.414 31.1167 226.364 29.35 228.231 26.95V29.8C224.698 34.1 220.531 36.25 215.731 36.25ZM227.681 20.8H219.631V18.75H229.881V36H227.681V20.8ZM258.021 6.4C257.454 5.76667 256.821 5.21667 256.121 4.75C255.421 4.25 254.671 3.85 253.871 3.55C253.071 3.21666 252.204 2.96666 251.271 2.8C250.337 2.63333 249.337 2.55 248.271 2.55C244.804 2.55 242.271 3.21667 240.671 4.55C239.104 5.85 238.321 7.61667 238.321 9.85C238.321 11.35 238.671 12.55 239.371 13.45C240.104 14.3167 241.237 15.0167 242.771 15.55C244.304 16.0833 246.287 16.6 248.721 17.1C251.287 17.6333 253.504 18.2667 255.371 19C257.237 19.7 258.671 20.6667 259.671 21.9C260.704 23.1333 261.221 24.8 261.221 26.9C261.221 28.4667 260.921 29.85 260.321 31.05C259.721 32.2167 258.854 33.1833 257.721 33.95C256.587 34.7167 255.237 35.3 253.671 35.7C252.137 36.1 250.421 36.3 248.521 36.3C246.687 36.3 244.937 36.1 243.271 35.7C241.604 35.3 240.037 34.7167 238.571 33.95C237.104 33.1833 235.737 32.2 234.471 31L235.821 28.95C236.554 29.75 237.371 30.4667 238.271 31.1C239.204 31.7 240.204 32.2167 241.271 32.65C242.371 33.0833 243.537 33.4333 244.771 33.7C246.004 33.9333 247.287 34.05 248.621 34.05C251.721 34.05 254.137 33.4833 255.871 32.35C257.637 31.1833 258.521 29.4667 258.521 27.2C258.521 25.6333 258.121 24.3667 257.321 23.4C256.521 22.4333 255.287 21.65 253.621 21.05C251.954 20.4167 249.871 19.8333 247.371 19.3C244.871 18.7667 242.737 18.1667 240.971 17.5C239.237 16.8333 237.921 15.9333 237.021 14.8C236.154 13.6667 235.721 12.1333 235.721 10.2C235.721 8.06666 236.237 6.26667 237.271 4.8C238.337 3.3 239.821 2.16667 241.721 1.4C243.621 0.633332 245.804 0.249998 248.271 0.249998C249.804 0.249998 251.221 0.399998 252.521 0.699998C253.854 0.999999 255.071 1.46667 256.171 2.1C257.304 2.7 258.354 3.46667 259.321 4.4L258.021 6.4Z" fill="black"/>
</svg>
